<mxfile host="app.diagrams.net" agent="Mozilla/5.0 (Windows NT 10.0; Win64; x64) AppleWebKit/537.36 (KHTML, like Gecko) Chrome/132.0.0.0 YaBrowser/25.2.0.0 Safari/537.36" version="26.0.14">
  <diagram name="Страница — 1" id="htTYf_1K6jZPHaESpqNm">
    <mxGraphModel dx="1583" dy="1380" grid="0" gridSize="10" guides="1" tooltips="1" connect="1" arrows="1" fold="1" page="0" pageScale="1" pageWidth="827" pageHeight="1169" math="0" shadow="0">
      <root>
        <mxCell id="0" />
        <mxCell id="1" parent="0" />
        <mxCell id="0RjGnEH0N3NWQ0LiLL-Q-15" style="rounded=0;orthogonalLoop=1;jettySize=auto;html=1;exitX=0;exitY=0.3333333333333333;exitDx=0;exitDy=0;exitPerimeter=0;entryX=1;entryY=0;entryDx=0;entryDy=0;endArrow=none;startFill=0;" parent="1" source="631sCLjCBAMUoYMSvYK3-2" target="631sCLjCBAMUoYMSvYK3-6" edge="1">
          <mxGeometry relative="1" as="geometry" />
        </mxCell>
        <mxCell id="0RjGnEH0N3NWQ0LiLL-Q-17" style="rounded=0;orthogonalLoop=1;jettySize=auto;html=1;exitX=0;exitY=0.3333333333333333;exitDx=0;exitDy=0;exitPerimeter=0;entryX=1;entryY=1;entryDx=0;entryDy=0;endArrow=none;startFill=0;" parent="1" source="631sCLjCBAMUoYMSvYK3-2" target="0RjGnEH0N3NWQ0LiLL-Q-50" edge="1">
          <mxGeometry relative="1" as="geometry">
            <mxPoint x="80.25" y="-80" as="targetPoint" />
          </mxGeometry>
        </mxCell>
        <mxCell id="0RjGnEH0N3NWQ0LiLL-Q-18" style="rounded=0;orthogonalLoop=1;jettySize=auto;html=1;exitX=1;exitY=0.3333333333333333;exitDx=0;exitDy=0;exitPerimeter=0;entryX=0;entryY=0;entryDx=0;entryDy=0;endArrow=none;startFill=0;" parent="1" source="631sCLjCBAMUoYMSvYK3-2" target="631sCLjCBAMUoYMSvYK3-9" edge="1">
          <mxGeometry relative="1" as="geometry" />
        </mxCell>
        <mxCell id="0RjGnEH0N3NWQ0LiLL-Q-26" style="rounded=0;orthogonalLoop=1;jettySize=auto;html=1;exitX=1;exitY=0.3333333333333333;exitDx=0;exitDy=0;exitPerimeter=0;entryX=0;entryY=0;entryDx=0;entryDy=0;endArrow=none;startFill=0;" parent="1" source="631sCLjCBAMUoYMSvYK3-2" target="0RjGnEH0N3NWQ0LiLL-Q-27" edge="1">
          <mxGeometry relative="1" as="geometry">
            <mxPoint x="9.094947017729282e-13" y="199.9999999999999" as="targetPoint" />
          </mxGeometry>
        </mxCell>
        <mxCell id="tIoHU-EwZb3PM0bL2-op-69" style="rounded=0;orthogonalLoop=1;jettySize=auto;html=1;exitX=1;exitY=0.3333333333333333;exitDx=0;exitDy=0;exitPerimeter=0;entryX=0;entryY=1;entryDx=0;entryDy=0;endArrow=none;startFill=0;" edge="1" parent="1" source="631sCLjCBAMUoYMSvYK3-2" target="0RjGnEH0N3NWQ0LiLL-Q-54">
          <mxGeometry relative="1" as="geometry" />
        </mxCell>
        <mxCell id="tIoHU-EwZb3PM0bL2-op-71" style="rounded=0;orthogonalLoop=1;jettySize=auto;html=1;exitX=0;exitY=0.3333333333333333;exitDx=0;exitDy=0;exitPerimeter=0;entryX=1;entryY=0;entryDx=0;entryDy=0;endArrow=none;startFill=0;" edge="1" parent="1" source="631sCLjCBAMUoYMSvYK3-2" target="0RjGnEH0N3NWQ0LiLL-Q-39">
          <mxGeometry relative="1" as="geometry" />
        </mxCell>
        <mxCell id="tIoHU-EwZb3PM0bL2-op-75" style="rounded=0;orthogonalLoop=1;jettySize=auto;html=1;exitX=0;exitY=0.3333333333333333;exitDx=0;exitDy=0;exitPerimeter=0;entryX=1;entryY=0.5;entryDx=0;entryDy=0;endArrow=none;startFill=0;" edge="1" parent="1" source="631sCLjCBAMUoYMSvYK3-2" target="631sCLjCBAMUoYMSvYK3-25">
          <mxGeometry relative="1" as="geometry" />
        </mxCell>
        <mxCell id="tIoHU-EwZb3PM0bL2-op-76" style="rounded=0;orthogonalLoop=1;jettySize=auto;html=1;exitX=0;exitY=0.3333333333333333;exitDx=0;exitDy=0;exitPerimeter=0;entryX=1;entryY=1;entryDx=0;entryDy=0;endArrow=none;startFill=0;" edge="1" parent="1" source="631sCLjCBAMUoYMSvYK3-2" target="0RjGnEH0N3NWQ0LiLL-Q-47">
          <mxGeometry relative="1" as="geometry" />
        </mxCell>
        <mxCell id="tIoHU-EwZb3PM0bL2-op-77" style="rounded=0;orthogonalLoop=1;jettySize=auto;html=1;exitX=1;exitY=0.3333333333333333;exitDx=0;exitDy=0;exitPerimeter=0;entryX=0;entryY=0.5;entryDx=0;entryDy=0;endArrow=none;startFill=0;" edge="1" parent="1" source="631sCLjCBAMUoYMSvYK3-2" target="0RjGnEH0N3NWQ0LiLL-Q-19">
          <mxGeometry relative="1" as="geometry" />
        </mxCell>
        <mxCell id="tIoHU-EwZb3PM0bL2-op-78" style="rounded=0;orthogonalLoop=1;jettySize=auto;html=1;exitX=1;exitY=0.3333333333333333;exitDx=0;exitDy=0;exitPerimeter=0;entryX=0;entryY=1;entryDx=0;entryDy=0;endArrow=none;startFill=0;" edge="1" parent="1" source="631sCLjCBAMUoYMSvYK3-2" target="631sCLjCBAMUoYMSvYK3-27">
          <mxGeometry relative="1" as="geometry" />
        </mxCell>
        <mxCell id="631sCLjCBAMUoYMSvYK3-2" value="Пользователь" style="shape=umlActor;verticalLabelPosition=bottom;verticalAlign=top;html=1;outlineConnect=0;" parent="1" vertex="1">
          <mxGeometry x="100" y="-120" width="41" height="80" as="geometry" />
        </mxCell>
        <mxCell id="631sCLjCBAMUoYMSvYK3-4" value="Ввод персональных&lt;div&gt;данных&lt;/div&gt;" style="ellipse;whiteSpace=wrap;html=1;" parent="1" vertex="1">
          <mxGeometry x="480" y="-200" width="160.5" height="80" as="geometry" />
        </mxCell>
        <mxCell id="631sCLjCBAMUoYMSvYK3-6" value="Просмотр&lt;div&gt;информации о сети&lt;/div&gt;&lt;div&gt;магазинов&lt;/div&gt;" style="ellipse;whiteSpace=wrap;html=1;" parent="1" vertex="1">
          <mxGeometry x="-200" y="120" width="160.5" height="80" as="geometry" />
        </mxCell>
        <mxCell id="631sCLjCBAMUoYMSvYK3-7" value="Ввод&amp;nbsp;&lt;span style=&quot;background-color: transparent; color: light-dark(rgb(0, 0, 0), rgb(255, 255, 255));&quot;&gt;данных&lt;/span&gt;&lt;div&gt;&lt;span style=&quot;background-color: transparent; color: light-dark(rgb(0, 0, 0), rgb(255, 255, 255));&quot;&gt;банковской карты&lt;/span&gt;&lt;/div&gt;" style="ellipse;whiteSpace=wrap;html=1;" parent="1" vertex="1">
          <mxGeometry x="680" y="-220" width="160.5" height="80" as="geometry" />
        </mxCell>
        <mxCell id="631sCLjCBAMUoYMSvYK3-9" value="Просмотр отзывов&lt;div&gt;о товаре&lt;/div&gt;" style="ellipse;whiteSpace=wrap;html=1;" parent="1" vertex="1">
          <mxGeometry x="281" width="160.5" height="80" as="geometry" />
        </mxCell>
        <mxCell id="631sCLjCBAMUoYMSvYK3-24" value="Оформление&amp;nbsp;&lt;span style=&quot;background-color: transparent; color: light-dark(rgb(0, 0, 0), rgb(255, 255, 255));&quot;&gt;доставки&lt;/span&gt;" style="ellipse;whiteSpace=wrap;html=1;" parent="1" vertex="1">
          <mxGeometry x="480" y="-360" width="160.5" height="80" as="geometry" />
        </mxCell>
        <mxCell id="631sCLjCBAMUoYMSvYK3-25" value="Добавление товара&lt;div&gt;в избранное&lt;/div&gt;" style="ellipse;whiteSpace=wrap;html=1;" parent="1" vertex="1">
          <mxGeometry x="-200" y="-120" width="160.5" height="80" as="geometry" />
        </mxCell>
        <mxCell id="631sCLjCBAMUoYMSvYK3-27" value="Добавление товара&lt;div&gt;в корзину&lt;/div&gt;" style="ellipse;whiteSpace=wrap;html=1;" parent="1" vertex="1">
          <mxGeometry x="280" y="-220" width="160.5" height="80" as="geometry" />
        </mxCell>
        <mxCell id="0RjGnEH0N3NWQ0LiLL-Q-19" value="Написание отзыва&lt;div&gt;о товаре&lt;/div&gt;" style="ellipse;whiteSpace=wrap;html=1;" parent="1" vertex="1">
          <mxGeometry x="280" y="-120" width="160.5" height="80" as="geometry" />
        </mxCell>
        <mxCell id="0RjGnEH0N3NWQ0LiLL-Q-27" value="Просмотр каталога" style="ellipse;whiteSpace=wrap;html=1;" parent="1" vertex="1">
          <mxGeometry x="281" y="120" width="160.5" height="80" as="geometry" />
        </mxCell>
        <mxCell id="0RjGnEH0N3NWQ0LiLL-Q-31" value="" style="rounded=0;orthogonalLoop=1;jettySize=auto;html=1;endArrow=none;startFill=0;startArrow=open;dashed=1;dashPattern=8 8;exitX=1;exitY=0.5;exitDx=0;exitDy=0;entryX=0;entryY=0.5;entryDx=0;entryDy=0;" parent="1" source="0RjGnEH0N3NWQ0LiLL-Q-27" target="0RjGnEH0N3NWQ0LiLL-Q-33" edge="1">
          <mxGeometry relative="1" as="geometry">
            <mxPoint x="180" y="210" as="sourcePoint" />
          </mxGeometry>
        </mxCell>
        <mxCell id="0RjGnEH0N3NWQ0LiLL-Q-32" value="&amp;lt;&amp;lt;extend&amp;gt;&amp;gt;" style="edgeLabel;html=1;align=center;verticalAlign=middle;resizable=0;points=[];" parent="0RjGnEH0N3NWQ0LiLL-Q-31" vertex="1" connectable="0">
          <mxGeometry relative="1" as="geometry">
            <mxPoint as="offset" />
          </mxGeometry>
        </mxCell>
        <mxCell id="0RjGnEH0N3NWQ0LiLL-Q-33" value="Поиск&amp;nbsp;&lt;span style=&quot;background-color: transparent; color: light-dark(rgb(0, 0, 0), rgb(255, 255, 255));&quot;&gt;товара&lt;/span&gt;" style="ellipse;whiteSpace=wrap;html=1;" parent="1" vertex="1">
          <mxGeometry x="560.5" y="120" width="160.5" height="80" as="geometry" />
        </mxCell>
        <mxCell id="0RjGnEH0N3NWQ0LiLL-Q-39" value="Смена темы" style="ellipse;whiteSpace=wrap;html=1;" parent="1" vertex="1">
          <mxGeometry x="-200" width="160.5" height="80" as="geometry" />
        </mxCell>
        <mxCell id="0RjGnEH0N3NWQ0LiLL-Q-47" value="&lt;div&gt;&lt;span style=&quot;background-color: transparent; color: light-dark(rgb(0, 0, 0), rgb(255, 255, 255));&quot;&gt;Удаление&amp;nbsp;&lt;/span&gt;&lt;span style=&quot;background-color: transparent; color: light-dark(rgb(0, 0, 0), rgb(255, 255, 255));&quot;&gt;товара&lt;/span&gt;&lt;/div&gt;&lt;div&gt;&lt;span style=&quot;background-color: transparent; color: light-dark(rgb(0, 0, 0), rgb(255, 255, 255));&quot;&gt;из избранного&lt;/span&gt;&lt;/div&gt;" style="ellipse;whiteSpace=wrap;html=1;" parent="1" vertex="1">
          <mxGeometry x="-200" y="-240" width="160.5" height="80" as="geometry" />
        </mxCell>
        <mxCell id="0RjGnEH0N3NWQ0LiLL-Q-50" value="Удаление товара&lt;div&gt;из корзины&lt;/div&gt;" style="ellipse;whiteSpace=wrap;html=1;" parent="1" vertex="1">
          <mxGeometry x="-200" y="-360" width="160.5" height="80" as="geometry" />
        </mxCell>
        <mxCell id="0RjGnEH0N3NWQ0LiLL-Q-54" value="Смена языка" style="ellipse;whiteSpace=wrap;html=1;" parent="1" vertex="1">
          <mxGeometry x="280" y="-360" width="160.5" height="80" as="geometry" />
        </mxCell>
        <mxCell id="0RjGnEH0N3NWQ0LiLL-Q-57" style="rounded=0;orthogonalLoop=1;jettySize=auto;html=1;exitX=0;exitY=1;exitDx=0;exitDy=0;dashed=1;dashPattern=8 8;entryX=1;entryY=0;entryDx=0;entryDy=0;" parent="1" source="631sCLjCBAMUoYMSvYK3-24" target="631sCLjCBAMUoYMSvYK3-27" edge="1">
          <mxGeometry relative="1" as="geometry">
            <mxPoint x="159" y="-131" as="targetPoint" />
            <mxPoint x="290" y="-170" as="sourcePoint" />
          </mxGeometry>
        </mxCell>
        <mxCell id="0RjGnEH0N3NWQ0LiLL-Q-58" value="&amp;lt;&amp;lt;extend&amp;gt;&amp;gt;" style="edgeLabel;html=1;align=center;verticalAlign=middle;resizable=0;points=[];" parent="0RjGnEH0N3NWQ0LiLL-Q-57" vertex="1" connectable="0">
          <mxGeometry relative="1" as="geometry">
            <mxPoint as="offset" />
          </mxGeometry>
        </mxCell>
        <mxCell id="0RjGnEH0N3NWQ0LiLL-Q-59" style="rounded=0;orthogonalLoop=1;jettySize=auto;html=1;entryX=0.5;entryY=0;entryDx=0;entryDy=0;startArrow=none;startFill=0;endArrow=classic;dashed=1;dashPattern=8 8;endFill=1;exitX=0.5;exitY=1;exitDx=0;exitDy=0;" parent="1" source="631sCLjCBAMUoYMSvYK3-24" target="631sCLjCBAMUoYMSvYK3-4" edge="1">
          <mxGeometry relative="1" as="geometry">
            <mxPoint x="18" y="-92" as="sourcePoint" />
            <mxPoint x="-109" y="-70" as="targetPoint" />
          </mxGeometry>
        </mxCell>
        <mxCell id="0RjGnEH0N3NWQ0LiLL-Q-60" value="&amp;lt;&amp;lt;include&amp;gt;&amp;gt;" style="edgeLabel;html=1;align=center;verticalAlign=middle;resizable=0;points=[];" parent="0RjGnEH0N3NWQ0LiLL-Q-59" vertex="1" connectable="0">
          <mxGeometry x="-0.065" y="-2" relative="1" as="geometry">
            <mxPoint as="offset" />
          </mxGeometry>
        </mxCell>
        <mxCell id="0RjGnEH0N3NWQ0LiLL-Q-62" style="rounded=0;orthogonalLoop=1;jettySize=auto;html=1;entryX=0;entryY=0;entryDx=0;entryDy=0;startArrow=none;startFill=0;endArrow=classic;dashed=1;dashPattern=8 8;endFill=1;exitX=1;exitY=1;exitDx=0;exitDy=0;" parent="1" source="631sCLjCBAMUoYMSvYK3-24" target="631sCLjCBAMUoYMSvYK3-7" edge="1">
          <mxGeometry relative="1" as="geometry">
            <mxPoint x="650" y="-210" as="sourcePoint" />
            <mxPoint x="650" y="-270" as="targetPoint" />
          </mxGeometry>
        </mxCell>
        <mxCell id="0RjGnEH0N3NWQ0LiLL-Q-63" value="&amp;lt;&amp;lt;include&amp;gt;&amp;gt;" style="edgeLabel;html=1;align=center;verticalAlign=middle;resizable=0;points=[];" parent="0RjGnEH0N3NWQ0LiLL-Q-62" vertex="1" connectable="0">
          <mxGeometry x="-0.065" y="-2" relative="1" as="geometry">
            <mxPoint as="offset" />
          </mxGeometry>
        </mxCell>
        <mxCell id="tIoHU-EwZb3PM0bL2-op-1" style="rounded=0;orthogonalLoop=1;jettySize=auto;html=1;exitX=1;exitY=0.3333333333333333;exitDx=0;exitDy=0;exitPerimeter=0;entryX=0;entryY=0.5;entryDx=0;entryDy=0;endArrow=none;startFill=0;" edge="1" parent="1" source="tIoHU-EwZb3PM0bL2-op-2" target="tIoHU-EwZb3PM0bL2-op-3">
          <mxGeometry relative="1" as="geometry" />
        </mxCell>
        <mxCell id="tIoHU-EwZb3PM0bL2-op-2" value="Администратор" style="shape=umlActor;verticalLabelPosition=bottom;verticalAlign=top;html=1;outlineConnect=0;" vertex="1" parent="1">
          <mxGeometry x="-200" y="680" width="41" height="80" as="geometry" />
        </mxCell>
        <mxCell id="tIoHU-EwZb3PM0bL2-op-3" value="Открытие панели&lt;div&gt;управления заказами&lt;/div&gt;" style="ellipse;whiteSpace=wrap;html=1;" vertex="1" parent="1">
          <mxGeometry x="80.5" y="600" width="160.5" height="80" as="geometry" />
        </mxCell>
        <mxCell id="tIoHU-EwZb3PM0bL2-op-6" value="Открытие панели&lt;div&gt;управления каталогом&lt;/div&gt;" style="ellipse;whiteSpace=wrap;html=1;" vertex="1" parent="1">
          <mxGeometry x="80.5" y="740" width="160.5" height="80" as="geometry" />
        </mxCell>
        <mxCell id="tIoHU-EwZb3PM0bL2-op-7" style="rounded=0;orthogonalLoop=1;jettySize=auto;html=1;exitX=1;exitY=0.3333333333333333;exitDx=0;exitDy=0;exitPerimeter=0;entryX=0;entryY=0.5;entryDx=0;entryDy=0;endArrow=none;startFill=0;" edge="1" parent="1" source="tIoHU-EwZb3PM0bL2-op-2" target="tIoHU-EwZb3PM0bL2-op-6">
          <mxGeometry relative="1" as="geometry">
            <mxPoint x="-8.5" y="717" as="sourcePoint" />
            <mxPoint x="114.5" y="678" as="targetPoint" />
          </mxGeometry>
        </mxCell>
        <mxCell id="tIoHU-EwZb3PM0bL2-op-8" value="Установка статуса&lt;div&gt;заказа &quot;Доставлено&quot;&lt;/div&gt;" style="ellipse;whiteSpace=wrap;html=1;" vertex="1" parent="1">
          <mxGeometry x="80.5" y="440" width="160.5" height="80" as="geometry" />
        </mxCell>
        <mxCell id="tIoHU-EwZb3PM0bL2-op-9" style="rounded=0;orthogonalLoop=1;jettySize=auto;html=1;exitX=0.5;exitY=1;exitDx=0;exitDy=0;dashed=1;dashPattern=8 8;entryX=0.5;entryY=0;entryDx=0;entryDy=0;" edge="1" parent="1" source="tIoHU-EwZb3PM0bL2-op-8" target="tIoHU-EwZb3PM0bL2-op-3">
          <mxGeometry relative="1" as="geometry">
            <mxPoint x="51.5" y="430" as="targetPoint" />
            <mxPoint x="170.5" y="430" as="sourcePoint" />
          </mxGeometry>
        </mxCell>
        <mxCell id="tIoHU-EwZb3PM0bL2-op-10" value="&amp;lt;&amp;lt;extend&amp;gt;&amp;gt;" style="edgeLabel;html=1;align=center;verticalAlign=middle;resizable=0;points=[];" vertex="1" connectable="0" parent="tIoHU-EwZb3PM0bL2-op-9">
          <mxGeometry relative="1" as="geometry">
            <mxPoint as="offset" />
          </mxGeometry>
        </mxCell>
        <mxCell id="tIoHU-EwZb3PM0bL2-op-11" value="Установка статуса&lt;div&gt;заказа &quot;Оформлен&quot;&lt;/div&gt;" style="ellipse;whiteSpace=wrap;html=1;" vertex="1" parent="1">
          <mxGeometry x="280.5" y="440" width="160.5" height="80" as="geometry" />
        </mxCell>
        <mxCell id="tIoHU-EwZb3PM0bL2-op-12" value="&lt;span style=&quot;background-color: transparent; color: light-dark(rgb(0, 0, 0), rgb(255, 255, 255));&quot;&gt;Сортировка&lt;/span&gt;&lt;div&gt;&lt;div&gt;товаров&lt;/div&gt;&lt;/div&gt;" style="ellipse;whiteSpace=wrap;html=1;" vertex="1" parent="1">
          <mxGeometry x="480.5" y="440" width="160.5" height="80" as="geometry" />
        </mxCell>
        <mxCell id="tIoHU-EwZb3PM0bL2-op-13" value="Отправление&lt;div&gt;уведомления&amp;nbsp;&lt;span style=&quot;background-color: transparent; color: light-dark(rgb(0, 0, 0), rgb(255, 255, 255));&quot;&gt;по e-mail&lt;/span&gt;&lt;/div&gt;" style="ellipse;whiteSpace=wrap;html=1;" vertex="1" parent="1">
          <mxGeometry x="280.5" y="320" width="160.5" height="80" as="geometry" />
        </mxCell>
        <mxCell id="tIoHU-EwZb3PM0bL2-op-14" style="rounded=0;orthogonalLoop=1;jettySize=auto;html=1;startArrow=none;startFill=0;endArrow=classic;dashed=1;dashPattern=8 8;endFill=1;exitX=1;exitY=0;exitDx=0;exitDy=0;entryX=0;entryY=1;entryDx=0;entryDy=0;" edge="1" parent="1" source="tIoHU-EwZb3PM0bL2-op-8" target="tIoHU-EwZb3PM0bL2-op-13">
          <mxGeometry relative="1" as="geometry">
            <mxPoint x="207.5" y="378" as="sourcePoint" />
            <mxPoint x="190.5" y="400" as="targetPoint" />
          </mxGeometry>
        </mxCell>
        <mxCell id="tIoHU-EwZb3PM0bL2-op-15" value="&amp;lt;&amp;lt;include&amp;gt;&amp;gt;" style="edgeLabel;html=1;align=center;verticalAlign=middle;resizable=0;points=[];" vertex="1" connectable="0" parent="tIoHU-EwZb3PM0bL2-op-14">
          <mxGeometry x="-0.065" y="-2" relative="1" as="geometry">
            <mxPoint as="offset" />
          </mxGeometry>
        </mxCell>
        <mxCell id="tIoHU-EwZb3PM0bL2-op-16" style="rounded=0;orthogonalLoop=1;jettySize=auto;html=1;exitX=0;exitY=1;exitDx=0;exitDy=0;dashed=1;dashPattern=8 8;entryX=1;entryY=0;entryDx=0;entryDy=0;" edge="1" parent="1" source="tIoHU-EwZb3PM0bL2-op-11" target="tIoHU-EwZb3PM0bL2-op-3">
          <mxGeometry relative="1" as="geometry">
            <mxPoint x="170.5" y="610" as="targetPoint" />
            <mxPoint x="170.5" y="530" as="sourcePoint" />
          </mxGeometry>
        </mxCell>
        <mxCell id="tIoHU-EwZb3PM0bL2-op-17" value="&amp;lt;&amp;lt;extend&amp;gt;&amp;gt;" style="edgeLabel;html=1;align=center;verticalAlign=middle;resizable=0;points=[];" vertex="1" connectable="0" parent="tIoHU-EwZb3PM0bL2-op-16">
          <mxGeometry relative="1" as="geometry">
            <mxPoint as="offset" />
          </mxGeometry>
        </mxCell>
        <mxCell id="tIoHU-EwZb3PM0bL2-op-18" style="rounded=0;orthogonalLoop=1;jettySize=auto;html=1;exitX=0;exitY=1;exitDx=0;exitDy=0;dashed=1;dashPattern=8 8;entryX=1;entryY=0.5;entryDx=0;entryDy=0;" edge="1" parent="1" source="tIoHU-EwZb3PM0bL2-op-12" target="tIoHU-EwZb3PM0bL2-op-3">
          <mxGeometry relative="1" as="geometry">
            <mxPoint x="227.5" y="622" as="targetPoint" />
            <mxPoint x="314.5" y="518" as="sourcePoint" />
          </mxGeometry>
        </mxCell>
        <mxCell id="tIoHU-EwZb3PM0bL2-op-19" value="&amp;lt;&amp;lt;extend&amp;gt;&amp;gt;" style="edgeLabel;html=1;align=center;verticalAlign=middle;resizable=0;points=[];" vertex="1" connectable="0" parent="tIoHU-EwZb3PM0bL2-op-18">
          <mxGeometry relative="1" as="geometry">
            <mxPoint as="offset" />
          </mxGeometry>
        </mxCell>
        <mxCell id="tIoHU-EwZb3PM0bL2-op-20" value="Сортировка&amp;nbsp;&lt;span style=&quot;background-color: transparent; color: light-dark(rgb(0, 0, 0), rgb(255, 255, 255));&quot;&gt;по статусу&lt;/span&gt;" style="ellipse;whiteSpace=wrap;html=1;" vertex="1" parent="1">
          <mxGeometry x="680.5" y="320" width="160.5" height="80" as="geometry" />
        </mxCell>
        <mxCell id="tIoHU-EwZb3PM0bL2-op-21" style="rounded=0;orthogonalLoop=1;jettySize=auto;html=1;startArrow=none;startFill=0;endArrow=classic;dashed=1;dashPattern=8 8;endFill=1;exitX=1;exitY=0;exitDx=0;exitDy=0;entryX=0;entryY=1;entryDx=0;entryDy=0;" edge="1" parent="1" source="tIoHU-EwZb3PM0bL2-op-12" target="tIoHU-EwZb3PM0bL2-op-20">
          <mxGeometry relative="1" as="geometry">
            <mxPoint x="227.5" y="462" as="sourcePoint" />
            <mxPoint x="314.5" y="398" as="targetPoint" />
          </mxGeometry>
        </mxCell>
        <mxCell id="tIoHU-EwZb3PM0bL2-op-22" value="&amp;lt;&amp;lt;include&amp;gt;&amp;gt;" style="edgeLabel;html=1;align=center;verticalAlign=middle;resizable=0;points=[];" vertex="1" connectable="0" parent="tIoHU-EwZb3PM0bL2-op-21">
          <mxGeometry relative="1" as="geometry">
            <mxPoint as="offset" />
          </mxGeometry>
        </mxCell>
        <mxCell id="tIoHU-EwZb3PM0bL2-op-23" value="Сортировка&amp;nbsp;&lt;span style=&quot;background-color: transparent; color: light-dark(rgb(0, 0, 0), rgb(255, 255, 255));&quot;&gt;по дате&lt;/span&gt;" style="ellipse;whiteSpace=wrap;html=1;" vertex="1" parent="1">
          <mxGeometry x="480.5" y="600" width="160.5" height="80" as="geometry" />
        </mxCell>
        <mxCell id="tIoHU-EwZb3PM0bL2-op-24" style="rounded=0;orthogonalLoop=1;jettySize=auto;html=1;startArrow=none;startFill=0;endArrow=classic;dashed=1;dashPattern=8 8;endFill=1;exitX=0.5;exitY=1;exitDx=0;exitDy=0;entryX=0.5;entryY=0;entryDx=0;entryDy=0;" edge="1" parent="1" source="tIoHU-EwZb3PM0bL2-op-12" target="tIoHU-EwZb3PM0bL2-op-23">
          <mxGeometry relative="1" as="geometry">
            <mxPoint x="560.5" y="760" as="sourcePoint" />
            <mxPoint x="570.5" y="580" as="targetPoint" />
          </mxGeometry>
        </mxCell>
        <mxCell id="tIoHU-EwZb3PM0bL2-op-25" value="&amp;lt;&amp;lt;include&amp;gt;&amp;gt;" style="edgeLabel;html=1;align=center;verticalAlign=middle;resizable=0;points=[];" vertex="1" connectable="0" parent="tIoHU-EwZb3PM0bL2-op-24">
          <mxGeometry relative="1" as="geometry">
            <mxPoint as="offset" />
          </mxGeometry>
        </mxCell>
        <mxCell id="tIoHU-EwZb3PM0bL2-op-26" value="Изменение&lt;div&gt;характеристик&lt;/div&gt;&lt;div&gt;товара&lt;/div&gt;" style="ellipse;whiteSpace=wrap;html=1;" vertex="1" parent="1">
          <mxGeometry x="280.5" y="640" width="160.5" height="80" as="geometry" />
        </mxCell>
        <mxCell id="tIoHU-EwZb3PM0bL2-op-27" style="rounded=0;orthogonalLoop=1;jettySize=auto;html=1;exitX=0;exitY=1;exitDx=0;exitDy=0;dashed=1;dashPattern=8 8;entryX=1;entryY=0;entryDx=0;entryDy=0;" edge="1" parent="1" source="tIoHU-EwZb3PM0bL2-op-26" target="tIoHU-EwZb3PM0bL2-op-6">
          <mxGeometry relative="1" as="geometry">
            <mxPoint x="251.5" y="650" as="targetPoint" />
            <mxPoint x="514.5" y="518" as="sourcePoint" />
          </mxGeometry>
        </mxCell>
        <mxCell id="tIoHU-EwZb3PM0bL2-op-28" value="&amp;lt;&amp;lt;extend&amp;gt;&amp;gt;" style="edgeLabel;html=1;align=center;verticalAlign=middle;resizable=0;points=[];" vertex="1" connectable="0" parent="tIoHU-EwZb3PM0bL2-op-27">
          <mxGeometry relative="1" as="geometry">
            <mxPoint as="offset" />
          </mxGeometry>
        </mxCell>
        <mxCell id="tIoHU-EwZb3PM0bL2-op-29" value="Удаление товара" style="ellipse;whiteSpace=wrap;html=1;" vertex="1" parent="1">
          <mxGeometry x="280.5" y="840" width="160.5" height="80" as="geometry" />
        </mxCell>
        <mxCell id="tIoHU-EwZb3PM0bL2-op-30" style="rounded=0;orthogonalLoop=1;jettySize=auto;html=1;exitX=0;exitY=0;exitDx=0;exitDy=0;dashed=1;dashPattern=8 8;entryX=1;entryY=1;entryDx=0;entryDy=0;" edge="1" parent="1" source="tIoHU-EwZb3PM0bL2-op-29" target="tIoHU-EwZb3PM0bL2-op-6">
          <mxGeometry relative="1" as="geometry">
            <mxPoint x="217.5" y="952" as="targetPoint" />
            <mxPoint x="514.5" y="718" as="sourcePoint" />
          </mxGeometry>
        </mxCell>
        <mxCell id="tIoHU-EwZb3PM0bL2-op-31" value="&amp;lt;&amp;lt;extend&amp;gt;&amp;gt;" style="edgeLabel;html=1;align=center;verticalAlign=middle;resizable=0;points=[];" vertex="1" connectable="0" parent="tIoHU-EwZb3PM0bL2-op-30">
          <mxGeometry relative="1" as="geometry">
            <mxPoint as="offset" />
          </mxGeometry>
        </mxCell>
        <mxCell id="tIoHU-EwZb3PM0bL2-op-32" value="Добавление товара" style="ellipse;whiteSpace=wrap;html=1;" vertex="1" parent="1">
          <mxGeometry x="400.5" y="740" width="160" height="80" as="geometry" />
        </mxCell>
        <mxCell id="tIoHU-EwZb3PM0bL2-op-33" style="rounded=0;orthogonalLoop=1;jettySize=auto;html=1;exitX=0;exitY=0.5;exitDx=0;exitDy=0;dashed=1;dashPattern=8 8;entryX=1;entryY=0.5;entryDx=0;entryDy=0;" edge="1" parent="1" source="tIoHU-EwZb3PM0bL2-op-32" target="tIoHU-EwZb3PM0bL2-op-6">
          <mxGeometry relative="1" as="geometry">
            <mxPoint x="297.5" y="708" as="targetPoint" />
            <mxPoint x="594.5" y="618" as="sourcePoint" />
          </mxGeometry>
        </mxCell>
        <mxCell id="tIoHU-EwZb3PM0bL2-op-34" value="&amp;lt;&amp;lt;extend&amp;gt;&amp;gt;" style="edgeLabel;html=1;align=center;verticalAlign=middle;resizable=0;points=[];" vertex="1" connectable="0" parent="tIoHU-EwZb3PM0bL2-op-33">
          <mxGeometry relative="1" as="geometry">
            <mxPoint as="offset" />
          </mxGeometry>
        </mxCell>
        <mxCell id="tIoHU-EwZb3PM0bL2-op-35" value="Ввод данных о товаре" style="ellipse;whiteSpace=wrap;html=1;" vertex="1" parent="1">
          <mxGeometry x="680.5" y="640" width="160" height="80" as="geometry" />
        </mxCell>
        <mxCell id="tIoHU-EwZb3PM0bL2-op-36" value="Загрузка изображения" style="ellipse;whiteSpace=wrap;html=1;" vertex="1" parent="1">
          <mxGeometry x="680.5" y="840" width="160" height="80" as="geometry" />
        </mxCell>
        <mxCell id="tIoHU-EwZb3PM0bL2-op-37" style="rounded=0;orthogonalLoop=1;jettySize=auto;html=1;startArrow=none;startFill=0;endArrow=classic;dashed=1;dashPattern=8 8;endFill=1;exitX=1;exitY=1;exitDx=0;exitDy=0;entryX=0;entryY=0.5;entryDx=0;entryDy=0;" edge="1" parent="1" source="tIoHU-EwZb3PM0bL2-op-32" target="tIoHU-EwZb3PM0bL2-op-36">
          <mxGeometry relative="1" as="geometry">
            <mxPoint x="570.5" y="530" as="sourcePoint" />
            <mxPoint x="570.5" y="610" as="targetPoint" />
          </mxGeometry>
        </mxCell>
        <mxCell id="tIoHU-EwZb3PM0bL2-op-38" value="&amp;lt;&amp;lt;include&amp;gt;&amp;gt;" style="edgeLabel;html=1;align=center;verticalAlign=middle;resizable=0;points=[];" vertex="1" connectable="0" parent="tIoHU-EwZb3PM0bL2-op-37">
          <mxGeometry relative="1" as="geometry">
            <mxPoint as="offset" />
          </mxGeometry>
        </mxCell>
        <mxCell id="tIoHU-EwZb3PM0bL2-op-39" style="rounded=0;orthogonalLoop=1;jettySize=auto;html=1;startArrow=none;startFill=0;endArrow=classic;dashed=1;dashPattern=8 8;endFill=1;exitX=1;exitY=0;exitDx=0;exitDy=0;entryX=0;entryY=0.5;entryDx=0;entryDy=0;" edge="1" parent="1" source="tIoHU-EwZb3PM0bL2-op-32" target="tIoHU-EwZb3PM0bL2-op-35">
          <mxGeometry relative="1" as="geometry">
            <mxPoint x="547.5" y="818" as="sourcePoint" />
            <mxPoint x="713.5" y="862" as="targetPoint" />
          </mxGeometry>
        </mxCell>
        <mxCell id="tIoHU-EwZb3PM0bL2-op-40" value="&amp;lt;&amp;lt;include&amp;gt;&amp;gt;" style="edgeLabel;html=1;align=center;verticalAlign=middle;resizable=0;points=[];" vertex="1" connectable="0" parent="tIoHU-EwZb3PM0bL2-op-39">
          <mxGeometry relative="1" as="geometry">
            <mxPoint as="offset" />
          </mxGeometry>
        </mxCell>
        <mxCell id="tIoHU-EwZb3PM0bL2-op-43" value="Просмотр каталога" style="ellipse;whiteSpace=wrap;html=1;" vertex="1" parent="1">
          <mxGeometry x="-119.88" y="520" width="160.5" height="80" as="geometry" />
        </mxCell>
        <mxCell id="tIoHU-EwZb3PM0bL2-op-44" value="" style="rounded=0;orthogonalLoop=1;jettySize=auto;html=1;endArrow=none;startFill=0;startArrow=open;dashed=1;dashPattern=8 8;exitX=0.5;exitY=0;exitDx=0;exitDy=0;entryX=0.5;entryY=1;entryDx=0;entryDy=0;" edge="1" parent="1" source="tIoHU-EwZb3PM0bL2-op-43" target="tIoHU-EwZb3PM0bL2-op-46">
          <mxGeometry relative="1" as="geometry">
            <mxPoint x="-180" y="810" as="sourcePoint" />
          </mxGeometry>
        </mxCell>
        <mxCell id="tIoHU-EwZb3PM0bL2-op-45" value="&amp;lt;&amp;lt;extend&amp;gt;&amp;gt;" style="edgeLabel;html=1;align=center;verticalAlign=middle;resizable=0;points=[];" vertex="1" connectable="0" parent="tIoHU-EwZb3PM0bL2-op-44">
          <mxGeometry x="-0.0361" y="3" relative="1" as="geometry">
            <mxPoint as="offset" />
          </mxGeometry>
        </mxCell>
        <mxCell id="tIoHU-EwZb3PM0bL2-op-46" value="Поиск&amp;nbsp;&lt;span style=&quot;background-color: transparent; color: light-dark(rgb(0, 0, 0), rgb(255, 255, 255));&quot;&gt;товара&lt;/span&gt;" style="ellipse;whiteSpace=wrap;html=1;" vertex="1" parent="1">
          <mxGeometry x="-119.88" y="360" width="160.5" height="80" as="geometry" />
        </mxCell>
        <mxCell id="tIoHU-EwZb3PM0bL2-op-47" style="rounded=0;orthogonalLoop=1;jettySize=auto;html=1;exitX=0;exitY=1;exitDx=0;exitDy=0;entryX=1;entryY=0.3333333333333333;entryDx=0;entryDy=0;entryPerimeter=0;endArrow=none;startFill=0;" edge="1" parent="1" source="tIoHU-EwZb3PM0bL2-op-43" target="tIoHU-EwZb3PM0bL2-op-2">
          <mxGeometry relative="1" as="geometry">
            <mxPoint x="-59.5" y="706.666666666667" as="targetPoint" />
          </mxGeometry>
        </mxCell>
        <mxCell id="tIoHU-EwZb3PM0bL2-op-50" style="rounded=0;orthogonalLoop=1;jettySize=auto;html=1;exitX=0;exitY=0.3333333333333333;exitDx=0;exitDy=0;exitPerimeter=0;entryX=1;entryY=1;entryDx=0;entryDy=0;endArrow=none;startFill=0;" edge="1" parent="1" source="tIoHU-EwZb3PM0bL2-op-54" target="tIoHU-EwZb3PM0bL2-op-59">
          <mxGeometry relative="1" as="geometry" />
        </mxCell>
        <mxCell id="tIoHU-EwZb3PM0bL2-op-51" style="rounded=0;orthogonalLoop=1;jettySize=auto;html=1;exitX=0;exitY=0.3333333333333333;exitDx=0;exitDy=0;exitPerimeter=0;entryX=1;entryY=0.5;entryDx=0;entryDy=0;endArrow=none;startFill=0;" edge="1" parent="1" source="tIoHU-EwZb3PM0bL2-op-54" target="tIoHU-EwZb3PM0bL2-op-58">
          <mxGeometry relative="1" as="geometry" />
        </mxCell>
        <mxCell id="tIoHU-EwZb3PM0bL2-op-52" style="rounded=0;orthogonalLoop=1;jettySize=auto;html=1;exitX=0;exitY=0.3333333333333333;exitDx=0;exitDy=0;exitPerimeter=0;entryX=1;entryY=0;entryDx=0;entryDy=0;endArrow=none;startFill=0;" edge="1" parent="1" source="tIoHU-EwZb3PM0bL2-op-54" target="tIoHU-EwZb3PM0bL2-op-60">
          <mxGeometry relative="1" as="geometry" />
        </mxCell>
        <mxCell id="tIoHU-EwZb3PM0bL2-op-53" style="rounded=0;orthogonalLoop=1;jettySize=auto;html=1;exitX=1;exitY=0.3333333333333333;exitDx=0;exitDy=0;exitPerimeter=0;entryX=0;entryY=0.5;entryDx=0;entryDy=0;endArrow=none;startFill=0;" edge="1" parent="1" source="tIoHU-EwZb3PM0bL2-op-54" target="tIoHU-EwZb3PM0bL2-op-61">
          <mxGeometry relative="1" as="geometry">
            <mxPoint x="399.5000000000009" y="-533.3400000000001" as="targetPoint" />
          </mxGeometry>
        </mxCell>
        <mxCell id="tIoHU-EwZb3PM0bL2-op-72" style="rounded=0;orthogonalLoop=1;jettySize=auto;html=1;exitX=1;exitY=0.3333333333333333;exitDx=0;exitDy=0;exitPerimeter=0;entryX=0;entryY=0;entryDx=0;entryDy=0;endArrow=none;startFill=0;" edge="1" parent="1" source="tIoHU-EwZb3PM0bL2-op-54" target="tIoHU-EwZb3PM0bL2-op-68">
          <mxGeometry relative="1" as="geometry" />
        </mxCell>
        <mxCell id="tIoHU-EwZb3PM0bL2-op-73" style="rounded=0;orthogonalLoop=1;jettySize=auto;html=1;exitX=1;exitY=0.3333333333333333;exitDx=0;exitDy=0;exitPerimeter=0;entryX=0;entryY=1;entryDx=0;entryDy=0;endArrow=none;startFill=0;" edge="1" parent="1" source="tIoHU-EwZb3PM0bL2-op-54" target="tIoHU-EwZb3PM0bL2-op-66">
          <mxGeometry relative="1" as="geometry" />
        </mxCell>
        <mxCell id="tIoHU-EwZb3PM0bL2-op-54" value="Гость" style="shape=umlActor;verticalLabelPosition=bottom;verticalAlign=top;html=1;outlineConnect=0;" vertex="1" parent="1">
          <mxGeometry x="240" y="-600" width="41" height="80" as="geometry" />
        </mxCell>
        <mxCell id="tIoHU-EwZb3PM0bL2-op-55" style="rounded=0;orthogonalLoop=1;jettySize=auto;html=1;exitX=1;exitY=0.5;exitDx=0;exitDy=0;entryX=0;entryY=0.5;entryDx=0;entryDy=0;startArrow=classic;startFill=1;endArrow=none;dashed=1;dashPattern=8 8;" edge="1" parent="1" source="tIoHU-EwZb3PM0bL2-op-57" target="tIoHU-EwZb3PM0bL2-op-58">
          <mxGeometry relative="1" as="geometry" />
        </mxCell>
        <mxCell id="tIoHU-EwZb3PM0bL2-op-56" value="&amp;lt;&amp;lt;include&amp;gt;&amp;gt;" style="edgeLabel;html=1;align=center;verticalAlign=middle;resizable=0;points=[];" vertex="1" connectable="0" parent="tIoHU-EwZb3PM0bL2-op-55">
          <mxGeometry relative="1" as="geometry">
            <mxPoint as="offset" />
          </mxGeometry>
        </mxCell>
        <mxCell id="tIoHU-EwZb3PM0bL2-op-57" value="Ввод данных для&lt;div&gt;регистрации&lt;/div&gt;" style="ellipse;whiteSpace=wrap;html=1;" vertex="1" parent="1">
          <mxGeometry x="-280" y="-600" width="160.5" height="80" as="geometry" />
        </mxCell>
        <mxCell id="tIoHU-EwZb3PM0bL2-op-58" value="Регистрация" style="ellipse;whiteSpace=wrap;html=1;" vertex="1" parent="1">
          <mxGeometry x="-1" y="-600" width="160.5" height="80" as="geometry" />
        </mxCell>
        <mxCell id="tIoHU-EwZb3PM0bL2-op-59" value="Просмотр&lt;div&gt;информации о сети&lt;/div&gt;&lt;div&gt;магазинов&lt;/div&gt;" style="ellipse;whiteSpace=wrap;html=1;" vertex="1" parent="1">
          <mxGeometry x="-1" y="-720" width="160.5" height="80" as="geometry" />
        </mxCell>
        <mxCell id="tIoHU-EwZb3PM0bL2-op-60" value="Просмотр отзывов&lt;div&gt;о товаре&lt;/div&gt;" style="ellipse;whiteSpace=wrap;html=1;" vertex="1" parent="1">
          <mxGeometry x="-1" y="-480.00000000000006" width="160.5" height="80" as="geometry" />
        </mxCell>
        <mxCell id="tIoHU-EwZb3PM0bL2-op-61" value="Просмотр каталога" style="ellipse;whiteSpace=wrap;html=1;" vertex="1" parent="1">
          <mxGeometry x="359.75" y="-600" width="160.5" height="80" as="geometry" />
        </mxCell>
        <mxCell id="tIoHU-EwZb3PM0bL2-op-62" value="" style="rounded=0;orthogonalLoop=1;jettySize=auto;html=1;endArrow=none;startFill=0;startArrow=open;dashed=1;dashPattern=8 8;exitX=1;exitY=0.5;exitDx=0;exitDy=0;entryX=0;entryY=0.5;entryDx=0;entryDy=0;" edge="1" parent="1" source="tIoHU-EwZb3PM0bL2-op-61" target="tIoHU-EwZb3PM0bL2-op-64">
          <mxGeometry relative="1" as="geometry">
            <mxPoint x="579.5" y="-523.34" as="sourcePoint" />
          </mxGeometry>
        </mxCell>
        <mxCell id="tIoHU-EwZb3PM0bL2-op-63" value="&amp;lt;&amp;lt;extend&amp;gt;&amp;gt;" style="edgeLabel;html=1;align=center;verticalAlign=middle;resizable=0;points=[];" vertex="1" connectable="0" parent="tIoHU-EwZb3PM0bL2-op-62">
          <mxGeometry relative="1" as="geometry">
            <mxPoint as="offset" />
          </mxGeometry>
        </mxCell>
        <mxCell id="tIoHU-EwZb3PM0bL2-op-64" value="Поиск&amp;nbsp;&lt;span style=&quot;background-color: transparent; color: light-dark(rgb(0, 0, 0), rgb(255, 255, 255));&quot;&gt;товара&lt;/span&gt;" style="ellipse;whiteSpace=wrap;html=1;" vertex="1" parent="1">
          <mxGeometry x="640.5" y="-600" width="160.5" height="80" as="geometry" />
        </mxCell>
        <mxCell id="tIoHU-EwZb3PM0bL2-op-66" value="Смена тему" style="ellipse;whiteSpace=wrap;html=1;" vertex="1" parent="1">
          <mxGeometry x="359.75" y="-720" width="160.5" height="80" as="geometry" />
        </mxCell>
        <mxCell id="tIoHU-EwZb3PM0bL2-op-68" value="Смена языка" style="ellipse;whiteSpace=wrap;html=1;" vertex="1" parent="1">
          <mxGeometry x="359.75" y="-480.00000000000006" width="160.5" height="80" as="geometry" />
        </mxCell>
      </root>
    </mxGraphModel>
  </diagram>
</mxfile>
